<svg width="11" height="8" fill="none" xmlns="http://www.w3.org/2000/svg"><path d="M4.524 1.093c.122.127.18.28.175.46a.672.672 0 01-.19.46L2.8 3.807h6.753c.171 0 .315.061.432.183a.63.63 0 01.174.452.63.63 0 01-.174.452.574.574 0 01-.432.182H2.798l1.726 1.809a.633.633 0 01.182.452c0 .175-.06.325-.182.452a.577.577 0 01-.431.19.576.576 0 01-.432-.19L.891 4.885a.563.563 0 01-.13-.206.738.738 0 01-.037-.238c0-.085.012-.164.037-.238a.564.564 0 01.13-.206l2.785-2.92a.551.551 0 01.417-.174.58.58 0 01.431.19z" fill="#000"/></svg>