<svg width="500" height="196" fill="none" xmlns="http://www.w3.org/2000/svg"><path d="M24.93 66.971c7.57-12.837 18.978-28.906 34.276-48.236a156.38 156.38 0 00-7.361 24.33l-.002.008-.001.007c-5.947 28.309-.698 49.818 16.639 63.63l.01.008.01.008c8.349 6.517 19.646 9.638 33.621 9.638 11.166 0 23.654-2.003 37.439-5.952l.014-.004.014-.004L469.42 11.755 133.139 171.463c-30.187 14.245-55.277 21.256-75.35 21.256-22.555 0-38.602-8.726-48.6-26.088-6.243-11.077-8.187-25.312-5.533-42.96 2.65-17.623 9.72-36.494 21.273-56.7z" stroke="#fff" stroke-width="5"/></svg>