<svg width="26" height="30" fill="none" xmlns="http://www.w3.org/2000/svg"><path d="M25 21.137v1.967c0 1.445-1.012 2.898-3.17 4.044C19.694 28.283 16.616 29 13 29c-3.615 0-6.694-.718-8.83-1.853C2.012 26.001 1 24.55 1 23.107v-1.97a1.89 1.89 0 01.147-.738 1.94 1.94 0 01.43-.632c.184-.183.406-.328.65-.429.246-.1.509-.152.775-.153H23c.267.002.53.054.774.154.245.1.466.246.65.429a1.892 1.892 0 01.575 1.37zm1 .004v1.963C26 27.048 20.466 30 13 30S0 27.044 0 23.108V21.14h26zM19.429 7.269a6.14 6.14 0 01-.485 2.395 6.265 6.265 0 01-1.388 2.036 6.445 6.445 0 01-2.087 1.366 6.572 6.572 0 01-4.937.004 6.446 6.446 0 01-2.088-1.364 6.266 6.266 0 01-1.391-2.034 6.14 6.14 0 01-.489-2.393 6.196 6.196 0 011.873-4.43A6.515 6.515 0 0112.99 1a6.515 6.515 0 014.558 1.842 6.197 6.197 0 011.88 4.427z" stroke="#000" stroke-width="2"/></svg>