<svg width="27" height="27" fill="none" xmlns="http://www.w3.org/2000/svg"><path d="M5.167 1L1 6v17.5c0 .663.293 1.299.814 1.768.52.469 1.227.732 1.964.732h19.444c.737 0 1.444-.263 1.964-.732.521-.47.814-1.105.814-1.768V6l-4.167-5H5.167zM1 6.127h25" stroke="#000" stroke-width="2" stroke-linecap="round" stroke-linejoin="round"/><path d="M19.125 11.254c0 1.36-.593 2.664-1.648 3.626-1.054.962-2.485 1.502-3.977 1.502s-2.923-.54-3.977-1.502c-1.055-.962-1.648-2.266-1.648-3.626" stroke="#000" stroke-width="2" stroke-linecap="round" stroke-linejoin="round"/></svg>