<svg width="19" height="15" fill="none" xmlns="http://www.w3.org/2000/svg"><path d="M15.142 13.956a1.357 1.357 0 01-.838-.684 1.48 1.48 0 01-.145-1.086l1.288-5.297L2.58 14.318a1.26 1.26 0 01-1.024.127 1.384 1.384 0 01-.829-.67 1.389 1.389 0 01-.166-1.053c.088-.36.295-.634.622-.822l12.868-7.43-5.278-1.546a1.392 1.392 0 01-.844-.662A1.39 1.39 0 017.778 1.2 1.27 1.27 0 018.39.363 1.27 1.27 0 019.421.251l8.474 2.484c.185.054.342.137.472.25.13.114.24.251.334.413.093.16.156.326.19.494a1.24 1.24 0 01-.02.535l-2.097 8.627a1.213 1.213 0 01-.6.79 1.27 1.27 0 01-1.033.112z" fill="#000"/></svg>