<svg width="0" height="0" class="hidden"><symbol xmlns="http://www.w3.org/2000/svg" viewBox="0 0 26 30" id="header-icon-login"><path d="M25 21.137v1.967c0 1.445-1.012 2.898-3.17 4.044C19.694 28.283 16.616 29 13 29c-3.615 0-6.694-.718-8.83-1.853C2.012 26.001 1 24.55 1 23.107v-1.97a1.89 1.89 0 01.147-.738 1.94 1.94 0 01.43-.632c.184-.183.406-.328.65-.429.246-.1.509-.152.775-.153H23c.267.002.53.054.774.154.245.1.466.246.65.429a1.892 1.892 0 01.575 1.37zm1 .004v1.963C26 27.048 20.466 30 13 30S0 27.044 0 23.108V21.14h26zM19.429 7.269a6.14 6.14 0 01-.485 2.395 6.265 6.265 0 01-1.388 2.036 6.445 6.445 0 01-2.087 1.366 6.572 6.572 0 01-4.937.004 6.446 6.446 0 01-2.088-1.364 6.266 6.266 0 01-1.391-2.034 6.14 6.14 0 01-.489-2.393 6.196 6.196 0 011.873-4.43A6.515 6.515 0 0112.99 1a6.515 6.515 0 014.558 1.842 6.197 6.197 0 011.88 4.427z"/></symbol><symbol xmlns="http://www.w3.org/2000/svg" viewBox="0 0 27 27" id="header-icon-search"><path d="M19.478 19.479L26 26m-14.674-4.348c5.703 0 10.326-4.623 10.326-10.326S17.029 1 11.326 1 1 5.623 1 11.326s4.623 10.326 10.326 10.326z" stroke-width="2" stroke-linecap="round" stroke-linejoin="round"/></symbol><symbol xmlns="http://www.w3.org/2000/svg" viewBox="0 0 27 27" id="header-icon-basket"><path d="M5.167 1L1 6v17.5c0 .663.293 1.299.814 1.768.52.469 1.227.732 1.964.732h19.444c.737 0 1.444-.263 1.964-.732.521-.47.814-1.105.814-1.768V6l-4.167-5H5.167zM1 6.127h25" stroke-width="2" stroke-linecap="round" stroke-linejoin="round"/><path d="M19.125 11.254c0 1.36-.593 2.664-1.648 3.626-1.054.962-2.485 1.502-3.977 1.502s-2.923-.54-3.977-1.502c-1.055-.962-1.648-2.266-1.648-3.626" stroke-width="2" stroke-linecap="round" stroke-linejoin="round"/></symbol><symbol id="new-link-icon" xmlns="http://www.w3.org/2000/svg" xmlns:xlink="http://www.w3.org/1999/xlink" xml:space="preserve" viewBox="0 0 512 512"><path d="M490.008 244.345a7.989 7.989 0 00-9.75 5.734l-.521 2.008H32.263l-.521-2.008c-1.102-4.281-5.477-6.848-9.75-5.734-4.273 1.105-6.844 5.473-5.734 9.75l49.789 192.031c4.57 17.641 20.484 29.961 38.711 29.961h302.484c18.227 0 34.141-12.32 38.711-29.961l49.789-192.031a7.998 7.998 0 00-5.734-9.75zM148 428.088c0 6.629-5.375 12-12 12s-12-5.371-12-12v-136c0-6.629 5.375-12 12-12s12 5.371 12 12v136zm40 0c0 6.629-5.375 12-12 12s-12-5.371-12-12v-136c0-6.629 5.375-12 12-12s12 5.371 12 12v136zm40 0c0 6.629-5.375 12-12 12s-12-5.371-12-12v-136c0-6.629 5.375-12 12-12s12 5.371 12 12v136zm40 0c0 6.629-5.375 12-12 12s-12-5.371-12-12v-136c0-6.629 5.375-12 12-12s12 5.371 12 12v136zm40 0c0 6.629-5.375 12-12 12s-12-5.371-12-12v-136c0-6.629 5.375-12 12-12s12 5.371 12 12v136zm40 0c0 6.629-5.375 12-12 12s-12-5.371-12-12v-136c0-6.629 5.375-12 12-12s12 5.371 12 12v136zm40 0c0 6.629-5.375 12-12 12s-12-5.371-12-12v-136c0-6.629 5.375-12 12-12s12 5.371 12 12v136z"/><path d="M496 220.088H16c-8.836 0-16 7.163-16 16 0 8.836 7.164 16 16 16h480c8.836 0 16-7.164 16-16 0-8.837-7.164-16-16-16z"/><path d="M282.275 37.134c-8.164 3.382-12.041 12.741-8.659 20.905l76.306 184.218c3.382 8.164 12.741 12.041 20.905 8.659 8.164-3.382 12.041-12.741 8.659-20.905L303.18 45.794c-3.382-8.164-12.741-12.041-20.905-8.66zm-52.156 0c8.164 3.382 12.041 12.741 8.659 20.905l-76.306 184.218c-3.382 8.164-12.741 12.041-20.905 8.659-8.164-3.382-12.041-12.741-8.659-20.905l76.306-184.218c3.381-8.163 12.741-12.04 20.905-8.659z"/></symbol><symbol xmlns="http://www.w3.org/2000/svg" viewBox="0 0 11 8" id="button-arrow"><path d="M4.524 1.093c.122.127.18.28.175.46a.672.672 0 01-.19.46L2.8 3.807h6.753c.171 0 .315.061.432.183a.63.63 0 01.174.452.63.63 0 01-.174.452.574.574 0 01-.432.182H2.798l1.726 1.809a.633.633 0 01.182.452c0 .175-.06.325-.182.452a.577.577 0 01-.431.19.576.576 0 01-.432-.19L.891 4.885a.563.563 0 01-.13-.206.738.738 0 01-.037-.238c0-.085.012-.164.037-.238a.564.564 0 01.13-.206l2.785-2.92a.551.551 0 01.417-.174.58.58 0 01.431.19z"/></symbol><symbol xmlns="http://www.w3.org/2000/svg" viewBox="0 0 11 8" id="button-arrow-right"><path d="M6.357 7.788a.616.616 0 01-.175-.46.672.672 0 01.19-.46l1.711-1.793H1.33a.573.573 0 01-.431-.183.629.629 0 01-.174-.451c0-.18.058-.331.174-.453a.574.574 0 01.431-.182h6.754L6.357 1.997a.633.633 0 01-.182-.452.63.63 0 01.182-.452.577.577 0 01.432-.19c.166 0 .31.063.431.19l2.771 2.903a.59.59 0 01.13.207.74.74 0 01.037.238.739.739 0 01-.038.238.565.565 0 01-.129.206L7.205 7.804a.552.552 0 01-.416.174.577.577 0 01-.432-.19z"/></symbol></svg>