<svg width="0" height="0" class="hidden"><symbol fill="none" xmlns="http://www.w3.org/2000/svg" viewBox="0 0 26 30" id="header-icon-login"><path d="M25 21.137v1.967c0 1.445-1.012 2.898-3.17 4.044C19.694 28.283 16.616 29 13 29c-3.615 0-6.694-.718-8.83-1.853C2.012 26.001 1 24.55 1 23.107v-1.97a1.89 1.89 0 01.147-.738 1.94 1.94 0 01.43-.632c.184-.183.406-.328.65-.429.246-.1.509-.152.775-.153H23c.267.002.53.054.774.154.245.1.466.246.65.429a1.892 1.892 0 01.575 1.37zm1 .004v1.963C26 27.048 20.466 30 13 30S0 27.044 0 23.108V21.14h26zM19.429 7.269a6.14 6.14 0 01-.485 2.395 6.265 6.265 0 01-1.388 2.036 6.445 6.445 0 01-2.087 1.366 6.572 6.572 0 01-4.937.004 6.446 6.446 0 01-2.088-1.364 6.266 6.266 0 01-1.391-2.034 6.14 6.14 0 01-.489-2.393 6.196 6.196 0 011.873-4.43A6.515 6.515 0 0112.99 1a6.515 6.515 0 014.558 1.842 6.197 6.197 0 011.88 4.427z" stroke="#000" stroke-width="2"/></symbol><symbol fill="none" xmlns="http://www.w3.org/2000/svg" viewBox="0 0 27 27" id="header-icon-search"><path d="M19.478 19.479L26 26m-14.674-4.348c5.703 0 10.326-4.623 10.326-10.326S17.029 1 11.326 1 1 5.623 1 11.326s4.623 10.326 10.326 10.326z" stroke="#000" stroke-width="2" stroke-linecap="round" stroke-linejoin="round"/></symbol><symbol fill="none" xmlns="http://www.w3.org/2000/svg" viewBox="0 0 27 27" id="header-icon-basket"><path d="M5.167 1L1 6v17.5c0 .663.293 1.299.814 1.768.52.469 1.227.732 1.964.732h19.444c.737 0 1.444-.263 1.964-.732.521-.47.814-1.105.814-1.768V6l-4.167-5H5.167zM1 6.127h25" stroke="#000" stroke-width="2" stroke-linecap="round" stroke-linejoin="round"/><path d="M19.125 11.254c0 1.36-.593 2.664-1.648 3.626-1.054.962-2.485 1.502-3.977 1.502s-2.923-.54-3.977-1.502c-1.055-.962-1.648-2.266-1.648-3.626" stroke="#000" stroke-width="2" stroke-linecap="round" stroke-linejoin="round"/></symbol><symbol fill="none" xmlns="http://www.w3.org/2000/svg" viewBox="0 0 19 15" id="new-link-icon"><path d="M15.142 13.956a1.357 1.357 0 01-.838-.684 1.48 1.48 0 01-.145-1.086l1.288-5.297L2.58 14.318a1.26 1.26 0 01-1.024.127 1.384 1.384 0 01-.829-.67 1.389 1.389 0 01-.166-1.053c.088-.36.295-.634.622-.822l12.868-7.43-5.278-1.546a1.392 1.392 0 01-.844-.662A1.39 1.39 0 017.778 1.2 1.27 1.27 0 018.39.363 1.27 1.27 0 019.421.251l8.474 2.484c.185.054.342.137.472.25.13.114.24.251.334.413.093.16.156.326.19.494a1.24 1.24 0 01-.02.535l-2.097 8.627a1.213 1.213 0 01-.6.79 1.27 1.27 0 01-1.033.112z" fill="#000"/></symbol></svg>